<?xml version="1.0" encoding="UTF-8" standalone="no"?>
<!DOCTYPE svg PUBLIC "-//W3C//DTD SVG 1.1//EN"
 "http://www.w3.org/Graphics/SVG/1.1/DTD/svg11.dtd">
<!-- Generated by graphviz version 2.43.0 (0)
 -->
<!-- Title: ChordNetwork Pages: 1 -->
<svg width="684pt" height="410pt"
 viewBox="0.00 0.00 410.24 246.07" xmlns="http://www.w3.org/2000/svg" xmlns:xlink="http://www.w3.org/1999/xlink">
<g id="graph0" class="graph" transform="scale(1.67 1.67) rotate(0) translate(4 242.07)">
<title>ChordNetwork</title>
<polygon fill="white" stroke="transparent" points="-4,4 -4,-242.07 406.24,-242.07 406.24,4 -4,4"/>
<!-- 0 -->
<g id="node1" class="node">
<title>0</title>
<ellipse fill="none" stroke="black" stroke-width="2" cx="107.09" cy="-161.88" rx="18" ry="18"/>
<text text-anchor="middle" x="107.09" y="-158.18" font-family="Times,serif" font-size="14.00">0</text>
</g>
<!-- 0&#45;&gt;0 -->
<g id="edge2" class="edge">
<title>0&#45;&gt;0</title>
<path fill="none" stroke="gray" stroke-width="1.5" d="M125.25,-164.05C134.63,-164.39 143.09,-163.66 143.09,-161.88 143.09,-160.8 139.95,-160.1 135.37,-159.8"/>
<polygon fill="gray" stroke="gray" stroke-width="1.5" points="135.28,-156.3 125.25,-159.71 135.21,-163.3 135.28,-156.3"/>
<text text-anchor="middle" x="148.09" y="-159.38" font-family="Times,serif" font-size="10.00">f1</text>
</g>
<!-- 0&#45;&gt;0 -->
<g id="edge3" class="edge">
<title>0&#45;&gt;0</title>
<path fill="none" stroke="gray" stroke-width="1.5" d="M124.81,-166.38C149.21,-170.48 179.09,-168.98 179.09,-161.88 179.09,-155.72 156.62,-153.78 134.74,-156.05"/>
<polygon fill="gray" stroke="gray" stroke-width="1.5" points="134.25,-152.58 124.81,-157.39 135.19,-159.52 134.25,-152.58"/>
<text text-anchor="middle" x="184.09" y="-159.38" font-family="Times,serif" font-size="10.00">f2</text>
</g>
<!-- 0&#45;&gt;0 -->
<g id="edge4" class="edge">
<title>0&#45;&gt;0</title>
<path fill="none" stroke="gray" stroke-width="1.5" d="M124.79,-165.46C142.09,-167.43 161.09,-166.24 161.09,-161.88 161.09,-158.37 148.79,-156.92 134.97,-157.51"/>
<polygon fill="gray" stroke="gray" stroke-width="1.5" points="134.49,-154.04 124.79,-158.31 135.03,-161.02 134.49,-154.04"/>
<text text-anchor="middle" x="166.09" y="-159.38" font-family="Times,serif" font-size="10.00">f3</text>
</g>
<!-- 2 -->
<g id="node2" class="node">
<title>2</title>
<ellipse fill="none" stroke="black" stroke-width="2" cx="211.63" cy="-18" rx="18" ry="18"/>
<text text-anchor="middle" x="211.63" y="-14.3" font-family="Times,serif" font-size="14.00">2</text>
</g>
<!-- 0&#45;&gt;2 -->
<g id="edge1" class="edge">
<title>0&#45;&gt;2</title>
<path fill="none" stroke="blue" stroke-width="2.5" d="M124.62,-157.37C150.98,-139.11 194.03,-81.46 209.15,-45.84"/>
<polygon fill="blue" stroke="blue" stroke-width="2.5" points="212.61,-46.59 212.77,-36 206.04,-44.18 212.61,-46.59"/>
<text text-anchor="middle" x="155.39" y="-104.61" font-family="Times,serif" font-size="10.00">succ</text>
</g>
<!-- data_0 -->
<g id="node3" class="node">
<title>data_0</title>
<polygon fill="none" stroke="black" stroke-width="2" points="54,-238.07 0,-238.07 0,-202.07 54,-202.07 54,-238.07"/>
<text text-anchor="middle" x="27" y="-217.57" font-family="Times,serif" font-size="10.00">5</text>
</g>
<!-- 0&#45;&gt;data_0 -->
<g id="edge5" class="edge">
<title>0&#45;&gt;data_0</title>
<path fill="none" stroke="black" stroke-width="1.5" stroke-dasharray="1,5" d="M92.4,-172.56C83.41,-179.09 71.51,-187.74 60.33,-195.86"/>
<polygon fill="black" stroke="black" stroke-width="1.5" points="58.01,-193.21 51.98,-201.92 62.13,-198.88 58.01,-193.21"/>
</g>
<!-- 2&#45;&gt;0 -->
<g id="edge7" class="edge">
<title>2&#45;&gt;0</title>
<path fill="none" stroke="gray" stroke-width="1.5" d="M194.1,-22.51C167.75,-40.77 124.69,-98.42 109.57,-134.04"/>
<polygon fill="gray" stroke="gray" stroke-width="1.5" points="106.11,-133.29 105.95,-143.88 112.68,-135.7 106.11,-133.29"/>
<text text-anchor="middle" x="146.83" y="-81.28" font-family="Times,serif" font-size="10.00">f1</text>
</g>
<!-- 2&#45;&gt;0 -->
<g id="edge8" class="edge">
<title>2&#45;&gt;0</title>
<path fill="none" stroke="gray" stroke-width="1.5" d="M197.79,-29.83C177.09,-53.14 139.01,-105.09 119.3,-136.48"/>
<polygon fill="gray" stroke="gray" stroke-width="1.5" points="116.24,-134.77 114.03,-145.13 122.22,-138.41 116.24,-134.77"/>
<text text-anchor="middle" x="163.54" y="-75.15" font-family="Times,serif" font-size="10.00">f2</text>
</g>
<!-- 2&#45;&gt;0 -->
<g id="edge9" class="edge">
<title>2&#45;&gt;0</title>
<path fill="none" stroke="gray" stroke-width="1.5" d="M204.66,-34.82C188.88,-61.71 151.24,-113.98 127.48,-142.43"/>
<polygon fill="gray" stroke="gray" stroke-width="1.5" points="124.74,-140.24 120.88,-150.11 130.05,-144.8 124.74,-140.24"/>
<text text-anchor="middle" x="161.07" y="-91.62" font-family="Times,serif" font-size="10.00">f3</text>
</g>
<!-- 6 -->
<g id="node4" class="node">
<title>6</title>
<ellipse fill="none" stroke="black" stroke-width="2" cx="107.09" cy="-51.97" rx="18" ry="18"/>
<text text-anchor="middle" x="107.09" y="-48.27" font-family="Times,serif" font-size="14.00">6</text>
</g>
<!-- 2&#45;&gt;6 -->
<g id="edge6" class="edge">
<title>2&#45;&gt;6</title>
<path fill="none" stroke="blue" stroke-width="2.5" d="M194.37,-23.61C177.95,-28.94 153,-37.05 133.98,-43.23"/>
<polygon fill="blue" stroke="blue" stroke-width="2.5" points="132.81,-39.93 124.38,-46.35 134.97,-46.59 132.81,-39.93"/>
<text text-anchor="middle" x="152.67" y="-36.42" font-family="Times,serif" font-size="10.00">succ</text>
</g>
<!-- 6&#45;&gt;0 -->
<g id="edge11" class="edge">
<title>6&#45;&gt;0</title>
<path fill="none" stroke="gray" stroke-width="1.5" d="M97.4,-67.25C93.07,-85.11 92.43,-114.95 95.49,-136.35"/>
<polygon fill="gray" stroke="gray" stroke-width="1.5" points="92.08,-137.18 97.35,-146.37 98.96,-135.9 92.08,-137.18"/>
<text text-anchor="middle" x="91.44" y="-104.8" font-family="Times,serif" font-size="10.00">f1</text>
</g>
<!-- 6&#45;&gt;0 -->
<g id="edge12" class="edge">
<title>6&#45;&gt;0</title>
<path fill="none" stroke="gray" stroke-width="1.5" d="M116.78,-67.25C121.11,-85.11 121.75,-114.95 118.7,-136.35"/>
<polygon fill="gray" stroke="gray" stroke-width="1.5" points="115.22,-135.9 116.84,-146.37 122.11,-137.18 115.22,-135.9"/>
<text text-anchor="middle" x="112.74" y="-104.8" font-family="Times,serif" font-size="10.00">f2</text>
</g>
<!-- 6&#45;&gt;0 -->
<g id="edge13" class="edge">
<title>6&#45;&gt;0</title>
<path fill="none" stroke="gray" stroke-width="1.5" d="M107.09,-70.12C107.09,-87.38 107.09,-113.61 107.09,-133.61"/>
<polygon fill="gray" stroke="gray" stroke-width="1.5" points="103.59,-133.7 107.09,-143.7 110.59,-133.7 103.59,-133.7"/>
<text text-anchor="middle" x="102.09" y="-104.86" font-family="Times,serif" font-size="10.00">f3</text>
</g>
<!-- 10 -->
<g id="node5" class="node">
<title>10</title>
<ellipse fill="none" stroke="black" stroke-width="2" cx="211.63" cy="-195.85" rx="23" ry="23"/>
<text text-anchor="middle" x="211.63" y="-192.15" font-family="Times,serif" font-size="14.00">10</text>
</g>
<!-- 6&#45;&gt;10 -->
<g id="edge10" class="edge">
<title>6&#45;&gt;10</title>
<path fill="none" stroke="blue" stroke-width="2.5" d="M117.69,-66.55C135.08,-90.48 169.92,-138.44 191.93,-168.74"/>
<polygon fill="blue" stroke="blue" stroke-width="2.5" points="189.34,-171.13 198.05,-177.16 195,-167.01 189.34,-171.13"/>
<text text-anchor="middle" x="143.31" y="-120.65" font-family="Times,serif" font-size="10.00">succ</text>
</g>
<!-- 10&#45;&gt;0 -->
<g id="edge15" class="edge">
<title>10&#45;&gt;0</title>
<path fill="none" stroke="gray" stroke-width="1.5" d="M195.77,-179.42C179.61,-170.61 154.36,-162.1 134.89,-158.72"/>
<polygon fill="gray" stroke="gray" stroke-width="1.5" points="135.14,-155.22 124.77,-157.4 134.23,-162.16 135.14,-155.22"/>
<text text-anchor="middle" x="170.33" y="-172.07" font-family="Times,serif" font-size="10.00">f1</text>
</g>
<!-- 10&#45;&gt;0 -->
<g id="edge16" class="edge">
<title>10&#45;&gt;0</title>
<path fill="none" stroke="gray" stroke-width="1.5" d="M189.14,-199.82C170.89,-197.44 145.46,-189.49 127.73,-180.78"/>
<polygon fill="gray" stroke="gray" stroke-width="1.5" points="129.21,-177.61 118.76,-175.9 125.87,-183.75 129.21,-177.61"/>
<text text-anchor="middle" x="153.43" y="-193.3" font-family="Times,serif" font-size="10.00">f2</text>
</g>
<!-- 10&#45;&gt;0 -->
<g id="edge17" class="edge">
<title>10&#45;&gt;0</title>
<path fill="none" stroke="gray" stroke-width="1.5" d="M189.97,-188.81C173.67,-183.52 151.24,-176.23 133.83,-170.57"/>
<polygon fill="gray" stroke="gray" stroke-width="1.5" points="134.83,-167.22 124.24,-167.45 132.67,-173.87 134.83,-167.22"/>
<text text-anchor="middle" x="156.9" y="-171.69" font-family="Times,serif" font-size="10.00">f3</text>
</g>
<!-- 14 -->
<g id="node6" class="node">
<title>14</title>
<ellipse fill="none" stroke="black" stroke-width="2" cx="276.24" cy="-106.92" rx="23" ry="23"/>
<text text-anchor="middle" x="276.24" y="-103.22" font-family="Times,serif" font-size="14.00">14</text>
</g>
<!-- 10&#45;&gt;14 -->
<g id="edge14" class="edge">
<title>10&#45;&gt;14</title>
<path fill="none" stroke="blue" stroke-width="2.5" d="M225.02,-177.42C234.14,-164.87 246.36,-148.04 256.59,-133.97"/>
<polygon fill="blue" stroke="blue" stroke-width="2.5" points="259.6,-135.78 262.64,-125.63 253.94,-131.66 259.6,-135.78"/>
<text text-anchor="middle" x="229.3" y="-158.7" font-family="Times,serif" font-size="10.00">succ</text>
</g>
<!-- 14&#45;&gt;0 -->
<g id="edge18" class="edge">
<title>14&#45;&gt;0</title>
<path fill="none" stroke="blue" stroke-width="2.5" d="M254.47,-114C223.74,-123.98 167.68,-142.2 134.26,-153.06"/>
<polygon fill="blue" stroke="blue" stroke-width="2.5" points="133.1,-149.75 124.67,-156.17 135.26,-156.41 133.1,-149.75"/>
<text text-anchor="middle" x="182.86" y="-136.53" font-family="Times,serif" font-size="10.00">succ</text>
</g>
<!-- data_14 -->
<g id="node7" class="node">
<title>data_14</title>
<polygon fill="none" stroke="black" stroke-width="2" points="402.24,-124.92 348.24,-124.92 348.24,-88.92 402.24,-88.92 402.24,-124.92"/>
<text text-anchor="middle" x="375.24" y="-104.42" font-family="Times,serif" font-size="10.00">1</text>
</g>
<!-- 14&#45;&gt;data_14 -->
<g id="edge19" class="edge">
<title>14&#45;&gt;data_14</title>
<path fill="none" stroke="black" stroke-width="1.5" stroke-dasharray="1,5" d="M299.2,-106.92C310.74,-106.92 325.01,-106.92 338.06,-106.92"/>
<polygon fill="black" stroke="black" stroke-width="1.5" points="338.18,-110.42 348.18,-106.92 338.18,-103.42 338.18,-110.42"/>
</g>
<!-- \n -->
<g id="node8" class="node">
<title>\n</title>
<ellipse fill="none" stroke="black" stroke-width="2" cx="292.74" cy="-192.92" rx="18" ry="18"/>
</g>
</g>
</svg>
